<?xml version="1.0" encoding="UTF-8"?> <svg xmlns="http://www.w3.org/2000/svg" width="202.79" height="55" viewBox="0 0 202.79 55"><g transform="translate(-274 -60)"><g transform="translate(273.998 352.001)"><path d="M31.506-280.426l-14.87,13.78a4.915,4.915,0,0,0-.393.45,8.594,8.594,0,0,0-.789,1.182,6.358,6.358,0,0,0-.695,1.709,4.417,4.417,0,0,0-.018,2.028,4.6,4.6,0,0,0,1.182,2.121,4.516,4.516,0,0,0,2.065,1.314,4.46,4.46,0,0,0,2.065.113,7.107,7.107,0,0,0,1.822-.582,10.2,10.2,0,0,0,1.3-.732q.469-.339.488-.356l9.912-8.694a4.25,4.25,0,0,0,.619.488,17.714,17.714,0,0,0,2.159,1.2L51.689-250.33a5.917,5.917,0,0,1,.431.638,11.659,11.659,0,0,1,.789,1.559,4.87,4.87,0,0,1,.414,1.82,1.875,1.875,0,0,1-.657,1.54,2.019,2.019,0,0,1-1.615.412,4.538,4.538,0,0,1-1.653-.6,10.837,10.837,0,0,1-1.3-.92,6.607,6.607,0,0,1-.525-.469l-10.87-11.6q-.02-.018-.282-.282a1.519,1.519,0,0,0-.62-.395.6.6,0,0,0-.676.207.524.524,0,0,0-.075.563,1.343,1.343,0,0,0,.394.544,3.312,3.312,0,0,0,.525.413l.245.169,14.156,15.114c.014.013.119.182.32.507a7.829,7.829,0,0,1,.581,1.2,3.423,3.423,0,0,1,.207,1.446,1.542,1.542,0,0,1-.751,1.182,2.862,2.862,0,0,1-1.464.431,4.061,4.061,0,0,1-1.314-.205,6.112,6.112,0,0,1-.977-.452,2.25,2.25,0,0,1-.357-.244L32-253.241a1.888,1.888,0,0,0-.226-.263,1.8,1.8,0,0,0-.563-.395.9.9,0,0,0-.788.075.433.433,0,0,0-.245.469,1.257,1.257,0,0,0,.3.544,4.123,4.123,0,0,0,.432.469,1.556,1.556,0,0,0,.245.188l12.334,12.937a1.893,1.893,0,0,1,.264.262,2.342,2.342,0,0,1,.45.713,1.772,1.772,0,0,1,.094,1.07,2.811,2.811,0,0,1-.808,1.351,3.3,3.3,0,0,1-1.389.864,2.312,2.312,0,0,1-1.163.038,2.609,2.609,0,0,1-.789-.319,1.934,1.934,0,0,1-.3-.225L27.15-248.753q-.018-.018-.3-.207a2.071,2.071,0,0,0-.639-.244.61.61,0,0,0-.619.207.607.607,0,0,0-.038.676,2.316,2.316,0,0,0,.469.619,2.489,2.489,0,0,0,.282.263l8.355,8.824c.013.013.088.113.226.3a4.122,4.122,0,0,1,.357.77,2.04,2.04,0,0,1,.075,1.033,1.878,1.878,0,0,1-.657,1.052,3.1,3.1,0,0,1-1.652.713,4.489,4.489,0,0,1-1.389-.056c-.375-.1-.576-.157-.6-.17L2.743-264.956a7.422,7.422,0,0,1-.45-.6,12.765,12.765,0,0,1-.958-1.69,14.694,14.694,0,0,1-.956-2.629A13.168,13.168,0,0,1,0-273.291a13.374,13.374,0,0,1,.732-4.056,17.44,17.44,0,0,1,2.384-4.525A17.41,17.41,0,0,1,8.9-287.167a13.254,13.254,0,0,1,6.909-1.652,18.084,18.084,0,0,1,7.679,2.2,33.2,33.2,0,0,1,8.017,6.2" transform="translate(0 -2.281)" fill="#3a5797" fill-rule="evenodd"></path><path d="M99.354-289a4.092,4.092,0,0,0-.263-.395,4.5,4.5,0,0,0-.92-.92,6.387,6.387,0,0,0-1.747-1,9.665,9.665,0,0,0-2.759-.638,16.542,16.542,0,0,0-3.981.169,13.07,13.07,0,0,0-4.093,1.708,52.655,52.655,0,0,0-5.238,3.586q-2.816,2.178-5.709,4.694-2.909,2.515-5.575,4.995T64.3-272.269q-2.123,2.049-3.343,3.286T59.7-267.706a2.549,2.549,0,0,0-.3.3,4.328,4.328,0,0,0-.6.807,3.227,3.227,0,0,0-.469,1.182,2.657,2.657,0,0,0,.113,1.446,3.98,3.98,0,0,0,1.146,1.577,2.993,2.993,0,0,0,1.858.789,3.786,3.786,0,0,0,1.784-.413,7.051,7.051,0,0,0,1.54-1.033,9.429,9.429,0,0,0,1.069-1.052,5.721,5.721,0,0,0,.394-.469l8.824-8.355a5.455,5.455,0,0,0,.375.469,9.022,9.022,0,0,0,1.183,1.071,9.574,9.574,0,0,0,2.009,1.165,10.186,10.186,0,0,0,2.891.751,13.033,13.033,0,0,0,3.812-.17,14.634,14.634,0,0,0,4.487-1.727,23.6,23.6,0,0,0,4.374-3.266,21.281,21.281,0,0,0,3.53-4.337,14.253,14.253,0,0,0,1.971-4.939A9.8,9.8,0,0,0,99.354-289" transform="translate(-41.863 0)" fill="#fd7f00" fill-rule="evenodd"></path><path d="M149.607-243.925l-12.8-13.781a8.448,8.448,0,0,0,1.145.169,14.427,14.427,0,0,0,2.985-.056,15.592,15.592,0,0,0,4.075-1.071,15.619,15.619,0,0,0,4.487-2.91,27.258,27.258,0,0,0,6.346-7.9A13.016,13.016,0,0,0,157.1-277.4q.02.017.638.638.638.621,1.577,1.728a28.922,28.922,0,0,1,1.954,2.609,21.556,21.556,0,0,1,1.8,3.211,13.961,13.961,0,0,1,1.09,3.585,9.044,9.044,0,0,1-.169,3.7,15.558,15.558,0,0,1-1.728,3.887,37.381,37.381,0,0,1-2.854,4.054q-1.633,2.028-3.322,3.831-1.709,1.8-3.173,3.209t-2.366,2.2c-.613.538-.927.814-.939.826" transform="translate(-98.274 -10.489)" fill="#fd7f00" fill-rule="evenodd"></path><path d="M42.342-155.136l3.51,3.736a3.328,3.328,0,0,1-.282.356,6.073,6.073,0,0,1-.807.77,4.451,4.451,0,0,1-1.182.714,2.936,2.936,0,0,1-1.484.188,3.379,3.379,0,0,1-1.69-.808,2.253,2.253,0,0,1-.9-1.445,2.042,2.042,0,0,1,.338-1.353,5.2,5.2,0,0,1,1-1.107,9.329,9.329,0,0,1,1.033-.77c.3-.188.456-.282.469-.282" transform="translate(-28.371 -98.321)" fill="#fd7f00" fill-rule="evenodd"></path><path d="M52.348-138.4l3.624,3.868-3.379,3.379a3.926,3.926,0,0,1-.414.356,4.508,4.508,0,0,1-1.051.638,2.768,2.768,0,0,1-1.445.188,2.668,2.668,0,0,1-1.578-.939,2.82,2.82,0,0,1-.769-1.634,2.474,2.474,0,0,1,.318-1.332,3.737,3.737,0,0,1,.676-.921,2.246,2.246,0,0,1,.395-.338l3.623-3.266" transform="translate(-34.003 -110.343)" fill="#fd7f00" fill-rule="evenodd"></path><path d="M74.379-121.6l3.624,4a3.9,3.9,0,0,1-.282.376,8.149,8.149,0,0,1-.808.807,4.928,4.928,0,0,1-1.183.77,3.08,3.08,0,0,1-1.483.282,3.174,3.174,0,0,1-1.69-.676,2.1,2.1,0,0,1-.92-1.408,2.623,2.623,0,0,1,.3-1.483,6.355,6.355,0,0,1,.958-1.333,9.9,9.9,0,0,1,1.014-.958,3.188,3.188,0,0,1,.469-.376" transform="translate(-51.453 -122.409)" fill="#fd7f00" fill-rule="evenodd"></path></g><path d="M19.883-28.555H26L16.289,0h-6.6L0-28.555H6.113l5.371,16.992q.449,1.5.928,3.506t.6,2.783a50.028,50.028,0,0,1,1.465-6.289Zm8.984,1.074q0-2.91,3.242-2.91t3.242,2.91a2.837,2.837,0,0,1-.811,2.158,3.407,3.407,0,0,1-2.432.771Q28.867-24.551,28.867-27.48ZM35.078,0H29.121V-21.836h5.957ZM48.242.391A7.092,7.092,0,0,1,42.2-2.6Q40-5.586,40-10.879q0-5.371,2.236-8.369a7.263,7.263,0,0,1,6.162-3,7.123,7.123,0,0,1,6.289,3.2h.2a24.353,24.353,0,0,1-.449-4.355v-6.992H60.41V0H55.84L54.688-2.832h-.254A6.817,6.817,0,0,1,48.242.391Zm2.09-4.746a4.037,4.037,0,0,0,3.35-1.328A7.726,7.726,0,0,0,54.844-10.2v-.645q0-3.516-1.084-5.039A4.026,4.026,0,0,0,50.234-17.4a3.5,3.5,0,0,0-3.1,1.689,9.014,9.014,0,0,0-1.1,4.912,8.542,8.542,0,0,0,1.113,4.834A3.637,3.637,0,0,0,50.332-4.355ZM73.164-15.117h1.992a6.635,6.635,0,0,0,4.18-1.1,3.862,3.862,0,0,0,1.387-3.213,3.96,3.96,0,0,0-1.162-3.145,5.445,5.445,0,0,0-3.643-1.016H73.164Zm13.672-4.531A8.728,8.728,0,0,1,83.955-12.6q-2.881,2.441-8.193,2.441h-2.6V0H67.109V-28.555H76.23q5.2,0,7.9,2.236T86.836-19.648Zm17.109-2.6a9.607,9.607,0,0,1,2.012.176l-.449,5.586a6.824,6.824,0,0,0-1.758-.2,6.317,6.317,0,0,0-4.443,1.465,5.3,5.3,0,0,0-1.592,4.1V0H91.758V-21.836H96.27l.879,3.672h.293a8.208,8.208,0,0,1,2.744-2.959A6.766,6.766,0,0,1,103.945-22.246Zm9.922,11.289a9.165,9.165,0,0,0,1.064,4.9,3.807,3.807,0,0,0,3.467,1.66,3.746,3.746,0,0,0,3.428-1.65,9.3,9.3,0,0,0,1.045-4.912,9.019,9.019,0,0,0-1.055-4.863,3.813,3.813,0,0,0-3.457-1.621,3.8,3.8,0,0,0-3.437,1.611A9.011,9.011,0,0,0,113.867-10.957Zm15.1,0q0,5.332-2.812,8.34A10.2,10.2,0,0,1,118.32.391a10.956,10.956,0,0,1-5.547-1.377,9.162,9.162,0,0,1-3.691-3.955,13.29,13.29,0,0,1-1.289-6.016q0-5.352,2.793-8.32t7.852-2.969a11.018,11.018,0,0,1,5.547,1.367,9.125,9.125,0,0,1,3.691,3.926A13.167,13.167,0,0,1,128.965-10.957Z" transform="translate(347.825 103)"></path></g></svg> 